<svg width="42" height="33" viewBox="0 0 42 33" fill="none" xmlns="http://www.w3.org/2000/svg"><path fill-rule="evenodd" clip-rule="evenodd" d="M11.995 24.774c.805.027.977.063 1.493.307.326.163.788.489 1.032.724.245.244.543.651.67.896.127.253.28.66.344.904.073.254.127.697.127.996 0 .298-.063.778-.136 1.067a5.5 5.5 0 0 1-.335.905c-.108.208-.398.588-.652.841-.253.245-.688.561-.96.688-.27.136-.787.29-1.13.344a3.5 3.5 0 0 1-1.223 0 4.8 4.8 0 0 1-1.068-.326 4.4 4.4 0 0 1-.932-.642c-.254-.245-.553-.597-.67-.797a4.5 4.5 0 0 1-.362-.904c-.118-.398-.145-.77-.118-1.402.027-.733.072-.95.317-1.448.154-.326.434-.77.624-.986.2-.217.534-.498.76-.633.227-.127.616-.308.86-.399.345-.117.67-.153 1.359-.135m-2.191 2.053a4.5 4.5 0 0 0-.444.914c-.108.344-.135.679-.108 1.086.027.326.126.769.226.995s.317.561.489.751c.172.199.534.461.806.588.389.19.624.235 1.086.235.398-.009.724-.072.996-.199a3.5 3.5 0 0 0 .751-.515c.181-.172.416-.47.507-.652.09-.19.217-.588.271-.887.073-.38.073-.687.01-1.013a4.6 4.6 0 0 0-.209-.769c-.063-.163-.28-.48-.48-.696a2.9 2.9 0 0 0-.805-.607c-.326-.153-.616-.217-1.041-.217-.48 0-.706.055-1.177.28-.444.218-.66.39-.878.706m22.74-2.071c.48 0 .932.054 1.34.18.452.136.624.236.688.39.036.108.1.434.136.723.027.28.036.516.009.516s-.218-.109-.426-.235a5 5 0 0 0-.751-.371c-.2-.072-.625-.127-.95-.127-.426.01-.716.064-1.042.217a3.3 3.3 0 0 0-.76.525 3.4 3.4 0 0 0-.543.805c-.181.39-.227.643-.227 1.176-.009.408.055.86.145 1.131.09.254.317.634.507.86.208.244.543.497.842.633.39.181.634.226 1.222.226.697 0 .788-.027 2.254-.778l-.072.299c-.036.163-.1.47-.136.687-.054.353-.1.398-.516.57a4.7 4.7 0 0 1-1.041.28 4.3 4.3 0 0 1-1.222-.017 5 5 0 0 1-1.104-.317 4.5 4.5 0 0 1-.906-.624 4 4 0 0 1-.697-.878 6 6 0 0 1-.39-.94 5 5 0 0 1-.117-1.041c0-.326.064-.832.136-1.131a4.5 4.5 0 0 1 .39-.95c.126-.226.361-.543.515-.715a3.5 3.5 0 0 1 .68-.543c.226-.126.615-.307.86-.388.27-.1.741-.163 1.176-.163m-32.526.072 1.684.036c1.53.027 1.729.045 2.055.226.199.1.47.308.606.453a1.98 1.98 0 0 1 .525 1.276c0 .18-.045.488-.09.678-.054.18-.226.488-.706 1.013l.335.226c.18.127.416.417.525.634.127.244.208.579.208.814 0 .226-.045.56-.09.75-.055.182-.227.48-.38.67a2.8 2.8 0 0 1-.752.543c-.426.19-.561.208-3.938.208zm1.159 3.275c1.403-.054 1.774-.109 1.973-.217a1.16 1.16 0 0 0 .444-.443c.1-.2.127-.408.09-.652-.027-.199-.144-.461-.262-.57-.109-.117-.371-.244-.57-.29-.2-.053-.652-.09-1.014-.09h-.661zm0 3.257c1.91-.045 2.082-.072 2.335-.253a1.1 1.1 0 0 0 .399-.543 1.6 1.6 0 0 0 .045-.606 1 1 0 0 0-.263-.47 2.3 2.3 0 0 0-.407-.29c-.109-.055-.634-.1-1.159-.1h-.95zm34.58-6.514h1.178v3.257h3.892v-3.257h1.086v7.51h-1.086v-3.167h-3.892v3.166h-1.177z" fill="#AE3A25"/><path d="M0 22.856V.509l1.313.01 3.91 4.794C7.378 7.946 9.18 10.1 9.233 10.1c.046 0 1.83-2.162 7.831-9.599l1.132.009v22.347h-2.807L15.344 6.57l-2.942 3.619c-2.806 3.447-2.951 3.61-3.223 3.591-.262-.018-.597-.389-6.373-7.3v16.375zM23.718 3.133V.69h18.195v2.443H34.22v19.723h-2.807V3.133z" fill="#4076BB"/><path d="M5.975 32.355v-7.509H7.15v7.51zm10.501-6.423v-1.086h5.974v1.086h-2.353v6.423H18.92v-6.423zm6.88 6.423v-7.509h2.127c1.168 0 2.145.027 2.163.063.019.046.055.29.145 1.023h-3.259v2.171h2.897v.995h-2.897v2.262h3.395l-.18.995z" fill="#AE3A25"/><path fill-rule="evenodd" clip-rule="evenodd" d="M23.672 13.094c.453 0 .752.045 1.041.18.227.1.507.272.616.38.118.11.28.317.362.471.073.154.172.434.208.633.037.2.027.561-.027.815-.081.37-.19.543-.606.95a6 6 0 0 1-.96.796l.86.868c.47.48.878.869.905.869s.308-.489 1.222-2.172h.752c.407 0 .742.019.742.046s-.39.724-.86 1.565c-.47.832-.85 1.538-.86 1.583 0 .036.516.615 1.159 1.294.634.67 1.159 1.267 1.168 1.312.018.045-.335.081-1.648.081l-1.448-1.438-.543.524c-.3.299-.752.634-.996.751-.38.172-.598.209-1.404.209-.869 0-1.004-.028-1.53-.272a2.9 2.9 0 0 1-.977-.724c-.226-.262-.462-.642-.543-.905-.1-.316-.127-.66-.1-1.13.027-.435.109-.806.227-1.04.108-.2.389-.544.624-.77.245-.226.607-.506.806-.633.199-.118.371-.226.38-.244.018-.018-.118-.218-.299-.453a4 4 0 0 1-.452-.724c-.073-.162-.127-.524-.127-.796 0-.271.054-.633.118-.787.063-.163.262-.443.434-.615.172-.18.489-.389.715-.47.227-.082.688-.154 1.041-.154m-.805 1.628a1.2 1.2 0 0 0-.145.47c0 .136.054.354.127.498.072.136.253.353.407.498l.28.244c.661-.443.87-.67.96-.877.073-.19.118-.453.09-.588-.026-.145-.18-.353-.325-.48a.9.9 0 0 0-.57-.226c-.154.009-.38.063-.49.127a1.5 1.5 0 0 0-.334.334m-.625 3.873c-.19.18-.398.425-.47.551a2.3 2.3 0 0 0-.173.498c-.036.154-.027.443.027.66.055.209.236.525.39.715.163.181.434.38.588.453.163.063.498.117.752.117.244 0 .606-.063.787-.136.19-.081.498-.298.688-.48.19-.18.39-.406.435-.488.063-.135-.127-.38-1.032-1.339-.607-.651-1.123-1.176-1.15-1.176a2 2 0 0 0-.272.154c-.126.081-.38.299-.57.47" fill="#4076BB"/></svg>